<?xml version="1.0" encoding="UTF-8" standalone="no"?>
<svg
   viewBox="0 0 26 26"
   width="26px"
   height="26px"
   version="1.1"
   id="svg1"
   sodipodi:docname="linkedin.svg"
   inkscape:version="1.3.2 (091e20e, 2023-11-25, custom)"
   xmlns:inkscape="http://www.inkscape.org/namespaces/inkscape"
   xmlns:sodipodi="http://sodipodi.sourceforge.net/DTD/sodipodi-0.dtd"
   xmlns="http://www.w3.org/2000/svg"
   xmlns:svg="http://www.w3.org/2000/svg">
  <defs
     id="defs1" />
  <sodipodi:namedview
     id="namedview1"
     pagecolor="#ffffff"
     bordercolor="#000000"
     borderopacity="0.25"
     inkscape:showpageshadow="2"
     inkscape:pageopacity="0.0"
     inkscape:pagecheckerboard="0"
     inkscape:deskcolor="#d1d1d1"
     inkscape:zoom="42.269231"
     inkscape:cx="13.011829"
     inkscape:cy="12.988171"
     inkscape:window-width="2560"
     inkscape:window-height="1334"
     inkscape:window-x="-11"
     inkscape:window-y="-11"
     inkscape:window-maximized="1"
     inkscape:current-layer="svg1" />
  <path
     d="M 21.125 0 L 4.875 0 C 2.183594 0 0 2.183594 0 4.875 L 0 21.125 C 0 23.816406 2.183594 26 4.875 26 L 21.125 26 C 23.816406 26 26 23.816406 26 21.125 L 26 4.875 C 26 2.183594 23.816406 0 21.125 0 Z M 8.039063 22.070313 L 4 22.070313 L 3.976563 9.976563 L 8.015625 9.976563 Z M 5.917969 8.394531 L 5.894531 8.394531 C 4.574219 8.394531 3.722656 7.484375 3.722656 6.351563 C 3.722656 5.191406 4.601563 4.3125 5.945313 4.3125 C 7.289063 4.3125 8.113281 5.191406 8.140625 6.351563 C 8.140625 7.484375 7.285156 8.394531 5.917969 8.394531 Z M 22.042969 22.070313 L 17.96875 22.070313 L 17.96875 15.5 C 17.96875 13.910156 17.546875 12.828125 16.125 12.828125 C 15.039063 12.828125 14.453125 13.558594 14.171875 14.265625 C 14.066406 14.519531 14.039063 14.867188 14.039063 15.222656 L 14.039063 22.070313 L 9.945313 22.070313 L 9.921875 9.976563 L 14.015625 9.976563 L 14.039063 11.683594 C 14.5625 10.875 15.433594 9.730469 17.519531 9.730469 C 20.105469 9.730469 22.039063 11.417969 22.039063 15.046875 L 22.039063 22.070313 Z"
     id="path1" />
  <path
     style="fill:#ffffff;stroke-width:0.0236579"
     d="M 4.3057325,25.951989 C 3.1681797,25.8098 2.1718893,25.312893 1.3839854,24.494742 0.65380946,23.736536 0.22318305,22.856347 0.05438081,21.77707 0.01400033,21.518888 0.01182894,21.071 0.01182894,13 c 0,-8.0710004 0.0021714,-8.5188879 0.04255187,-8.7770701 C 0.2222101,3.1498735 0.65140753,2.2682456 1.3709623,1.5184986 2.1916402,0.66338534 3.2117592,0.16518475 4.4053461,0.03658144 c 0.3201409,-0.03449368 16.8691669,-0.03449368 17.1893079,0 1.57482,0.16967941 2.912563,1.02599906 3.719788,2.38112306 0.400147,0.6717444 0.610513,1.3751904 0.662167,2.2142324 0.02951,0.4793721 0.02951,16.2567541 0,16.7361261 -0.05151,0.836716 -0.26431,1.546335 -0.665865,2.220441 -0.802415,1.347046 -2.146051,2.205751 -3.71609,2.374914 -0.370384,0.03991 -16.9659864,0.02894 -17.2889215,-0.01143 z m 3.7379263,-8.131698 c -9.2e-6,-2.345382 -0.00708,-5.070769 -0.01572,-6.056415 L 8.0122355,9.9717925 H 5.9933788 3.9745223 l 3.97e-5,5.2934485 c 2.18e-5,2.911397 0.00707,5.636784 0.015652,6.056415 l 0.015613,0.762966 h 2.0189246 2.0189246 z m 6.0146142,0.55596 0.0068,-3.708371 0.05267,-0.185813 c 0.189395,-0.668131 0.67787,-1.260315 1.230541,-1.4918 0.260126,-0.108953 0.439403,-0.140941 0.78641,-0.140317 0.369731,6.65e-4 0.563137,0.03899 0.815543,0.161599 0.581364,0.282409 0.889814,0.880958 0.981568,1.904739 0.01538,0.171588 0.02441,1.545499 0.02446,3.7202 l 8.1e-5,3.448134 h 2.047327 2.047326 l -0.0085,-3.909463 c -0.0092,-4.228549 -0.0027,-4.005794 -0.135881,-4.713831 C 21.6379,12.03226 20.929599,10.92971 19.884601,10.313824 19.137637,9.8735885 18.1272,9.6586141 17.156419,9.7333924 15.848863,9.8341122 14.921074,10.367923 14.185902,11.442503 l -0.125655,0.183666 -0.01557,-0.499793 c -0.0086,-0.274886 -0.01557,-0.64712 -0.01557,-0.827188 V 9.9717925 H 11.970883 9.9126479 l 8.7e-6,2.5254775 c 4.7e-6,1.389013 0.00709,4.1144 0.015746,6.056415 l 0.015737,3.530937 h 2.0536824 2.053681 z M 6.4689867,8.3509296 C 6.9384771,8.253567 7.2683951,8.0792405 7.5832206,7.7621756 7.7530907,7.591097 7.8194643,7.5031164 7.9062872,7.3339399 8.1067678,6.9432991 8.1789487,6.5714657 8.1359285,6.1509643 8.0821814,5.6256141 7.8798105,5.2118942 7.5033532,4.8577506 6.8604012,4.2529073 5.6952238,4.1214561 4.8143767,4.5543897 4.2944505,4.8099319 3.939471,5.2340929 3.7850261,5.7843494 c -0.063138,0.224949 -0.086721,0.6572079 -0.049047,0.8989991 0.1427088,0.9159012 0.8370838,1.5680704 1.8117919,1.7016664 0.2244287,0.030761 0.6919336,0.013463 0.9212157,-0.034085 z"
     id="path2" />
</svg>
